<?xml version="1.0" encoding="UTF-8"?>
<svg width="21px" height="27px" viewBox="0 0 21 27" version="1.1" xmlns="http://www.w3.org/2000/svg" xmlns:xlink="http://www.w3.org/1999/xlink">
    <!-- Generator: Sketch 60 (88103) - https://sketch.com -->
    <title>标注</title>
    <desc>Created with Sketch.</desc>
    <g id="pages-3" stroke="none" stroke-width="1" fill="none" fill-rule="evenodd">
        <g id="首页-点击空白" transform="translate(-577.000000, -585.000000)" fill="#3399FF" fill-rule="nonzero" stroke="#3B8CFF">
            <g id="标注" transform="translate(578.000000, 586.000000)">
                <path d="M19,9.72936125 C19,4.35501431 14.7470417,0 9.50076631,0 C4.25220493,0 0,4.35498817 0,9.72936125 C0,11.8682426 0.681720714,13.839651 1.82475893,15.4455332 L1.81411894,15.4455332 L9.50076111,26 L17.0194389,15.6779992 L17.0057589,15.6779992 C18.2513993,14.0323517 19,11.9722381 19,9.72936125 L19,9.72936125 Z M9.50076631,5.15719739 C11.9654445,5.15719739 13.9634852,7.20354966 13.9634852,9.72784528 C13.9634852,12.2513751 11.9631663,14.3000091 9.50076631,14.3000091 C7.03608812,14.3000091 5.03804744,12.2536569 5.03804744,9.72936125 C5.03804744,7.20583146 7.03608553,5.15719739 9.50076631,5.15719739 Z" id="形状"></path>
            </g>
        </g>
    </g>
</svg>